<?xml version="1.0" standalone="no"?>
<!DOCTYPE svg PUBLIC "-//W3C//DTD SVG 20010904//EN"
 "http://www.w3.org/TR/2001/REC-SVG-20010904/DTD/svg10.dtd">
<svg version="1.0" xmlns="http://www.w3.org/2000/svg"
 width="800.000000pt" height="600.000000pt" viewBox="0 0 800.000000 600.000000"
 preserveAspectRatio="xMidYMid meet">

<g transform="translate(0.000000,600.000000) scale(0.100000,-0.100000)"
fill="#000000" stroke="none">
<path d="M3609 5256 c-69 -20 -142 -63 -208 -123 -33 -29 -68 -53 -80 -53 -11
0 -46 7 -78 15 -71 19 -201 19 -269 1 -130 -34 -235 -120 -313 -256 -33 -58
-42 -67 -81 -78 -95 -29 -135 -47 -184 -84 -115 -87 -163 -216 -135 -362 l15
-76 -57 -56 c-70 -70 -117 -159 -125 -241 -16 -150 88 -316 235 -375 54 -22
67 -22 341 -21 157 1 382 1 500 0 895 -3 881 -4 942 20 32 12 84 40 117 63
l59 41 53 -40 c29 -22 84 -50 123 -63 71 -23 73 -23 616 -23 629 0 615 -2 695
79 100 100 112 233 31 339 -31 41 -34 50 -38 138 -5 124 -31 181 -124 271 -53
52 -74 80 -87 120 -47 136 -138 218 -289 262 -56 16 -57 17 -88 82 -42 89
-114 164 -193 200 -58 27 -71 29 -184 29 l-122 0 -38 37 c-63 60 -151 116
-221 140 -99 34 -246 31 -360 -6 l-83 -27 -77 26 c-92 33 -222 42 -293 21z
m176 -127 c76 -14 140 -47 188 -97 l38 -39 -90 -77 c-50 -43 -95 -85 -100 -94
-4 -10 -4 -31 1 -49 8 -30 12 -33 45 -33 26 0 50 10 87 38 66 50 107 66 156
59 51 -7 89 -35 143 -105 23 -31 52 -58 63 -60 28 -4 53 18 63 56 9 29 5 39
-32 94 -23 35 -56 72 -74 83 -18 11 -47 29 -65 40 -20 12 -47 46 -70 88 -42
78 -42 78 57 96 242 44 491 -180 472 -421 -6 -74 -44 -164 -68 -161 -8 0 -43
9 -78 18 -100 26 -202 5 -279 -59 -37 -32 -41 -63 -12 -94 27 -28 49 -28 108
2 95 48 160 43 229 -17 80 -70 83 -170 8 -259 -32 -37 -33 -81 -3 -102 52 -37
108 -3 157 96 25 50 31 73 31 127 -1 36 -7 84 -15 106 -20 55 -19 84 7 141 49
113 61 240 34 359 -8 33 -12 62 -10 65 3 2 32 4 64 3 93 -2 158 -43 199 -128
l19 -40 -73 -42 c-71 -41 -115 -83 -115 -108 0 -7 9 -24 21 -39 26 -33 62 -34
103 -2 61 46 99 60 166 60 107 1 208 -59 245 -147 12 -29 13 -38 3 -41 -7 -2
-44 -11 -83 -20 -96 -22 -171 -61 -228 -118 -44 -44 -97 -138 -97 -173 0 -8
-21 -38 -46 -66 -58 -65 -74 -103 -74 -174 0 -47 4 -60 26 -81 42 -43 104 -15
104 48 0 44 26 97 54 109 37 17 70 4 100 -41 24 -37 31 -41 63 -38 25 2 42 11
55 29 19 24 19 28 4 56 -8 17 -45 57 -82 90 l-66 60 15 29 c33 65 95 108 196
138 145 43 253 -13 282 -144 13 -59 -4 -89 -75 -126 -32 -17 -83 -49 -112 -70
-52 -37 -54 -41 -52 -79 l3 -40 51 0 c42 1 62 7 106 36 29 20 63 39 75 43 33
10 63 -10 84 -58 15 -34 16 -50 8 -78 -12 -44 -67 -95 -111 -103 -18 -3 -262
-5 -543 -3 l-510 3 -70 33 c-114 54 -118 61 -89 173 11 41 14 83 11 118 -7 61
-54 165 -91 200 -68 64 -154 -18 -96 -92 101 -128 42 -317 -124 -405 l-51 -27
-353 -3 c-399 -4 -438 1 -499 53 -51 43 -70 84 -88 187 -11 63 -21 88 -42 110
-15 15 -31 28 -36 28 -5 0 -22 -13 -38 -29 -39 -40 -38 -80 6 -222 20 -61 33
-114 30 -117 -10 -11 -451 -14 -553 -4 -90 8 -109 13 -145 39 -90 63 -125 199
-77 298 57 118 231 194 346 150 l46 -17 -7 -58 c-9 -74 8 -130 54 -181 48 -51
82 -59 115 -25 34 33 33 55 -4 101 -36 45 -39 91 -10 123 30 31 63 36 114 17
68 -26 115 1 100 60 -16 65 -109 97 -214 75 -54 -11 -63 -11 -102 8 -71 33
-127 44 -205 41 -90 -4 -97 3 -91 96 5 81 44 147 111 189 40 25 59 29 139 34
105 5 159 -6 209 -43 19 -13 49 -32 67 -42 31 -16 33 -16 60 4 17 13 28 31 30
51 4 36 -19 56 -143 122 -44 24 -82 44 -83 46 -11 8 16 52 63 103 71 76 149
113 243 113 118 0 266 -52 346 -123 39 -34 81 -115 89 -171 l6 -37 -84 -41
c-111 -53 -193 -129 -230 -211 -25 -55 -27 -70 -23 -143 15 -254 245 -417 497
-352 37 9 68 13 75 8 6 -5 42 -34 80 -65 79 -65 123 -75 150 -35 29 41 20 64
-39 108 -30 22 -60 50 -66 62 -16 29 -13 91 6 127 26 51 58 65 149 66 44 0 87
4 94 8 6 5 12 21 12 36 0 41 -42 79 -96 87 -124 18 -233 -45 -298 -174 -29
-56 -59 -85 -105 -101 -126 -42 -280 39 -317 166 -30 104 19 225 114 276 103
56 202 46 299 -30 62 -47 93 -53 123 -23 46 46 21 82 -120 172 l-85 54 -13 68
c-17 92 -64 179 -129 244 l-55 53 23 26 c33 34 104 75 158 89 59 16 65 16 136
3z"/>
<path d="M2093 3414 c-9 -25 4 -258 22 -380 20 -134 66 -352 105 -499 50 -190
92 -286 206 -475 120 -199 158 -328 157 -530 0 -224 -44 -368 -223 -743 -66
-137 -120 -253 -120 -259 0 -12 1765 -3 1904 10 l89 8 46 50 c25 28 81 109
123 180 42 71 83 137 90 146 12 17 25 16 223 -21 372 -69 472 -74 589 -31 73
28 145 100 191 193 19 39 55 142 79 227 99 350 185 522 359 720 87 100 97 117
97 165 0 48 -16 82 -89 195 -67 103 -112 210 -138 323 -23 106 -21 327 6 497
11 74 21 159 21 188 l0 52 -1865 0 c-1706 0 -1866 -1 -1872 -16z"/>
</g>
</svg>
